name rise42.5664peak47.7979fall81.9185.mot
datacolumns 19
datarows 35
range 19.95493200000000 20.01158700000000
endheader
time	ground_force1_vx	ground_force1_vy	ground_force1_vz	ground_force1_px	ground_force1_py	ground_force1_pz	ground_force2_vx	ground_force2_vy	ground_force2_vz	ground_force2_px	ground_force2_py	ground_force2_pz	ground_torque1_x	ground_torque1_y	ground_torque1_z	ground_torque2_x	ground_torque2_y	ground_torque2_z	
19.95493200000000	-35.77732200000000	823.86454600000002	48.75522700000000	0.12374200000000	0.00000000000000	0.09841800000000	0.00000000000000	0.00000000000000	0.00000000000000	0.00000000000000	0.00000000000000	0.00000000000000	0.00000000000000	17.71403100000000	0.00000000000000	0.00000000000000	0.00000000000000	0.00000000000000	
19.95658600000000	-36.44875500000000	822.03292999999996	48.68789400000000	0.12284300000000	0.00000000000000	0.09841500000000	0.00000000000000	0.00000000000000	0.00000000000000	0.00000000000000	0.00000000000000	0.00000000000000	0.00000000000000	17.69241500000000	0.00000000000000	0.00000000000000	0.00000000000000	0.00000000000000	
19.95826100000000	-37.13794700000000	820.09077700000000	48.60128600000000	0.12194500000000	0.00000000000000	0.09841000000000	0.00000000000000	0.00000000000000	0.00000000000000	0.00000000000000	0.00000000000000	0.00000000000000	0.00000000000000	17.67159100000000	0.00000000000000	0.00000000000000	0.00000000000000	0.00000000000000	
19.95995700000000	-37.84476700000000	818.03687900000000	48.49491800000000	0.12104800000000	0.00000000000000	0.09840400000000	0.00000000000000	0.00000000000000	0.00000000000000	0.00000000000000	0.00000000000000	0.00000000000000	0.00000000000000	17.65157600000000	0.00000000000000	0.00000000000000	0.00000000000000	0.00000000000000	
19.96159800000000	-38.56902200000000	815.86999400000002	48.36833000000000	0.12015100000000	0.00000000000000	0.09839500000000	-1.79895100000000	3.76367000000000	1.18769200000000	0.00000000000000	0.00000000000000	0.00000000000000	0.00000000000000	17.63237800000000	0.00000000000000	0.00000000000000	0.34753600000000	0.00000000000000	
19.96325600000000	-39.31044600000000	813.58884599999999	48.22108700000000	0.11925400000000	0.00000000000000	0.09838600000000	-2.92428000000000	7.02422100000000	2.05545900000000	0.00000000000000	0.00000000000000	0.00000000000000	0.00000000000000	17.61399800000000	0.00000000000000	0.00000000000000	0.61564200000000	0.00000000000000	
19.96496300000000	-40.06870600000000	811.19211900000005	48.05277800000000	0.11835700000000	0.00000000000000	0.09837500000000	-4.20747200000000	10.93323800000000	3.06984200000000	0.00000000000000	0.00000000000000	0.00000000000000	0.00000000000000	17.59642700000000	0.00000000000000	0.00000000000000	0.93146700000000	0.00000000000000	
19.96658900000000	-40.84339400000000	808.67845599999998	47.86302200000000	0.11746000000000	0.00000000000000	0.09836200000000	-5.61291100000000	15.44095000000000	4.20990700000000	0.00000000000000	0.00000000000000	0.00000000000000	0.00000000000000	17.57964800000000	0.00000000000000	0.00000000000000	1.28917900000000	0.00000000000000	
19.96825700000000	-41.63402700000000	806.04645900000003	47.65146700000000	0.11656300000000	0.00000000000000	0.09834700000000	-7.09529800000000	20.46814000000000	5.44686500000000	0.00000000000000	0.00000000000000	0.00000000000000	0.00000000000000	17.56363500000000	0.00000000000000	0.00000000000000	1.68048300000000	0.00000000000000	
19.96992500000000	-42.44004600000000	803.29468799999995	47.41778900000000	0.11566500000000	0.00000000000000	0.09833100000000	-8.60265100000000	25.91204900000000	6.74599600000000	0.36128400000000	0.00000000000000	-0.05593400000000	0.00000000000000	17.54835100000000	0.00000000000000	0.00000000000000	4.05121600000000	0.00000000000000	
19.97158800000000	-43.26081500000000	800.42166099999997	47.16170000000000	0.11476700000000	0.00000000000000	0.09831400000000	-10.08015300000000	31.65489300000000	8.06925100000000	0.36329200000000	0.00000000000000	-0.05649400000000	0.00000000000000	17.53375200000000	0.00000000000000	0.00000000000000	4.88393700000000	0.00000000000000	
19.97325200000000	-44.09561800000000	797.42585599999995	46.88294000000000	0.11386800000000	0.00000000000000	0.09829400000000	-11.47432400000000	37.57388600000000	9.37820200000000	0.36514600000000	0.00000000000000	-0.05702000000000	0.00000000000000	17.51978100000000	0.00000000000000	0.00000000000000	5.71925100000000	0.00000000000000	
19.97493500000000	-44.94365600000000	794.30570999999998	46.58128700000000	0.11296900000000	0.00000000000000	0.09827400000000	-12.73697600000000	43.55134100000000	10.63691600000000	0.36686000000000	0.00000000000000	-0.05751700000000	0.00000000000000	17.50637400000000	0.00000000000000	0.00000000000000	6.53544500000000	0.00000000000000	
19.97659300000000	-45.80405200000000	791.05962199999999	46.25655300000000	0.11206800000000	0.00000000000000	0.09825100000000	-13.82842700000000	49.48352300000000	11.81440300000000	0.36844600000000	0.00000000000000	-0.05798800000000	0.00000000000000	17.49345500000000	0.00000000000000	0.00000000000000	7.31339900000000	0.00000000000000	
19.97825600000000	-46.67584600000000	787.68595700000003	45.90858900000000	0.11116600000000	0.00000000000000	0.09822700000000	-14.71965600000000	55.28730400000000	12.88637300000000	0.36991400000000	0.00000000000000	-0.05843900000000	0.00000000000000	17.48094100000000	0.00000000000000	0.00000000000000	8.03771300000000	0.00000000000000	
19.97992100000000	-47.55799400000000	784.18304699999999	45.53728000000000	0.11026400000000	0.00000000000000	0.09820200000000	-15.39330700000000	60.90420500000000	13.83619600000000	0.37127500000000	0.00000000000000	-0.05887100000000	0.00000000000000	17.46873400000000	0.00000000000000	0.00000000000000	8.69737100000000	0.00000000000000	
19.98158700000000	-48.44937100000000	780.54919900000004	45.14255600000000	0.10936000000000	0.00000000000000	0.09817500000000	-15.84357500000000	66.30177800000000	14.65510200000000	0.37253700000000	0.00000000000000	-0.05928800000000	0.00000000000000	17.45673000000000	0.00000000000000	0.00000000000000	9.28593700000000	0.00000000000000	
19.98325500000000	-49.34876800000000	776.78269499999999	44.72438300000000	0.10845500000000	0.00000000000000	0.09814700000000	-16.07516700000000	71.47262700000000	15.34168900000000	0.37370600000000	0.00000000000000	-0.05969100000000	0.00000000000000	17.44481400000000	0.00000000000000	0.00000000000000	9.80135600000000	0.00000000000000	
19.98493000000000	-50.25489600000000	772.88179900000000	44.28277100000000	0.10754900000000	0.00000000000000	0.09811700000000	-16.10157500000000	76.43152700000000	15.90092400000000	0.37479100000000	0.00000000000000	-0.06008200000000	0.00000000000000	17.43285800000000	0.00000000000000	0.00000000000000	10.24541500000000	0.00000000000000	
19.98658900000000	-51.16638300000000	768.84476299999994	43.81777200000000	0.10664200000000	0.00000000000000	0.09808600000000	-15.94290900000000	81.21120800000000	16.34278200000000	0.37579700000000	0.00000000000000	-0.06046200000000	0.00000000000000	17.42072600000000	0.00000000000000	0.00000000000000	10.62298800000000	0.00000000000000	
19.98825600000000	-52.08177800000000	764.66983500000003	43.32948300000000	0.10573400000000	0.00000000000000	0.09805300000000	-15.62356000000000	85.85740199999999	16.68071600000000	0.37673000000000	0.00000000000000	-0.06083200000000	0.00000000000000	17.40827200000000	0.00000000000000	0.00000000000000	10.94115700000000	0.00000000000000	
19.98992100000000	-52.99955100000000	760.35526000000004	42.81804400000000	0.10482400000000	0.00000000000000	0.09801900000000	-15.16991000000000	90.42366100000000	16.93010600000000	0.37759600000000	0.00000000000000	-0.06119500000000	0.00000000000000	17.39534000000000	0.00000000000000	0.00000000000000	11.20830400000000	0.00000000000000	
19.99158500000000	-53.91809600000000	755.89929600000005	42.28364300000000	0.10391400000000	0.00000000000000	0.09798300000000	-14.60826200000000	94.96643400000001	17.10681700000000	0.37839800000000	0.00000000000000	-0.06154900000000	0.00000000000000	17.38176200000000	0.00000000000000	0.00000000000000	11.43325500000000	0.00000000000000	
19.99325900000000	-54.83573100000000	751.30021599999998	41.72651300000000	0.10300200000000	0.00000000000000	0.09794700000000	-13.96312600000000	99.54073900000000	17.22596600000000	0.37914100000000	0.00000000000000	-0.06189700000000	0.00000000000000	17.36736100000000	0.00000000000000	0.00000000000000	11.62453900000000	0.00000000000000	
19.99493400000000	-55.75070500000000	746.55631700000004	41.14693500000000	0.10209000000000	0.00000000000000	0.09790800000000	-13.25592400000000	104.19665800000000	17.30096000000000	0.37982900000000	0.00000000000000	-0.06223800000000	0.00000000000000	17.35195300000000	0.00000000000000	0.00000000000000	11.78979200000000	0.00000000000000	
19.99659100000000	-56.66119500000000	741.66593599999999	40.54523800000000	0.10117700000000	0.00000000000000	0.09786900000000	-12.50415300000000	108.97680400000000	17.34282000000000	0.38046600000000	0.00000000000000	-0.06257300000000	0.00000000000000	17.33534000000000	0.00000000000000	0.00000000000000	11.93534200000000	0.00000000000000	
19.99825700000000	-57.56531700000000	736.62745299999995	39.92179900000000	0.10026300000000	0.00000000000000	0.09782800000000	-11.72097400000000	113.91475800000001	17.35981400000000	0.38105400000000	0.00000000000000	-0.06290200000000	0.00000000000000	17.31731900000000	0.00000000000000	0.00000000000000	12.06596100000000	0.00000000000000	
19.99995500000000	-58.46112100000000	731.43930399999999	39.27704500000000	0.09935000000000	0.00000000000000	0.09778600000000	-10.91520100000000	119.03443300000001	17.35735300000000	0.38159700000000	0.00000000000000	-0.06322600000000	0.00000000000000	17.29767700000000	0.00000000000000	0.00000000000000	12.18477700000000	0.00000000000000	
20.00158900000000	-59.34660200000000	726.09999900000003	38.61144800000000	0.09843600000000	0.00000000000000	0.09774300000000	-10.09160000000000	124.35024700000000	17.33811500000000	0.38209800000000	0.00000000000000	-0.06354500000000	0.00000000000000	17.27619100000000	0.00000000000000	0.00000000000000	12.29333300000000	0.00000000000000	
20.00325600000000	-60.21970300000000	720.60812699999997	37.92553300000000	0.09752200000000	0.00000000000000	0.09769800000000	-9.25143400000000	129.86792900000000	17.30235600000000	0.38255800000000	0.00000000000000	-0.06385900000000	0.00000000000000	17.25263200000000	0.00000000000000	0.00000000000000	12.39175200000000	0.00000000000000	
20.00492900000000	-61.07831600000000	714.96237299999996	37.21987200000000	0.09660800000000	0.00000000000000	0.09765300000000	-8.39315500000000	135.58579800000001	17.24833900000000	0.38297900000000	0.00000000000000	-0.06416900000000	0.00000000000000	17.22676400000000	0.00000000000000	0.00000000000000	12.47897100000000	0.00000000000000	
20.00659200000000	-61.92029200000000	709.16153499999996	36.49508400000000	0.09569400000000	0.00000000000000	0.09760600000000	-7.51317800000000	141.49631900000000	17.17283000000000	0.38336400000000	0.00000000000000	-0.06447300000000	0.00000000000000	17.19834100000000	0.00000000000000	0.00000000000000	12.55303500000000	0.00000000000000	
20.00825200000000	-62.74344400000000	703.20453399999997	35.75183700000000	0.09478200000000	0.00000000000000	0.09755800000000	-6.60665600000000	147.58777799999999	17.07162000000000	0.38371500000000	0.00000000000000	-0.06477300000000	0.00000000000000	17.16711300000000	0.00000000000000	0.00000000000000	12.61139300000000	0.00000000000000	
20.00993000000000	-63.54555300000000	697.09043199999996	34.99084400000000	0.09387000000000	0.00000000000000	0.09750900000000	-5.66819600000000	153.84591900000001	16.94001800000000	0.38403300000000	0.00000000000000	-0.06506900000000	0.00000000000000	17.13282300000000	0.00000000000000	0.00000000000000	12.65119100000000	0.00000000000000	
20.01158700000000	-64.32437299999999	690.81844699999999	34.21286500000000	0.09295900000000	0.00000000000000	0.09745900000000	-4.69248200000000	160.25543999999999	16.77328900000000	0.38431800000000	0.00000000000000	-0.06536000000000	0.00000000000000	17.09521000000000	0.00000000000000	0.00000000000000	12.66953400000000	0.00000000000000	
